<?xml version="1.0" encoding="iso-8859-1"?>
<!-- Generator: Adobe Illustrator 17.1.0, SVG Export Plug-In . SVG Version: 6.00 Build 0)  -->
<!DOCTYPE svg PUBLIC "-//W3C//DTD SVG 1.1//EN" "http://www.w3.org/Graphics/SVG/1.1/DTD/svg11.dtd">
<svg version="1.1" id="Capa_1" xmlns="http://www.w3.org/2000/svg" xmlns:xlink="http://www.w3.org/1999/xlink" x="0px" y="0px"
	 viewBox="0 0 476 476" style="enable-background:new 0 0 476 476;" xml:space="preserve">
<g>
	<path d="M218,212.212c-4.143,0-7.5,3.357-7.5,7.5v95.057c-49.756-12.438-85-56.983-85-109.103V137.93H143
		c2.68,0,5.155-1.43,6.495-3.75c1.34-2.321,1.34-5.18,0-7.5l-45-77.93C103.155,46.43,100.68,45,98,45s-5.155,1.43-6.495,3.75
		l-45,77.93c-1.34,2.32-1.34,5.179,0,7.5c1.34,2.32,3.815,3.75,6.495,3.75h17.5v67.736c0,78.231,54.302,145.914,130,163.258v23.911
		c0,4.143,3.357,7.5,7.5,7.5h2.5V468.5c0,4.143,3.357,7.5,7.5,7.5s7.5-3.357,7.5-7.5v-75.665c0-4.143-3.357-7.5-7.5-7.5h-2.5
		v-22.502c0-3.601-2.56-6.693-6.097-7.367C137.609,341.79,85.5,278.79,85.5,205.666V130.43c0-4.143-3.357-7.5-7.5-7.5H65.991
		L98,67.498l32.009,55.432H118c-4.143,0-7.5,3.357-7.5,7.5v75.236c0,30.284,10.847,59.658,30.542,82.71
		c19.472,22.79,46.359,38.064,75.712,43.01c2.18,0.369,4.403-0.244,6.089-1.669s2.657-3.52,2.657-5.727V219.712
		C225.5,215.569,222.143,212.212,218,212.212z"/>
	<path d="M429.495,126.68l-45-77.93C383.155,46.43,380.68,45,378,45s-5.155,1.43-6.495,3.75l-45,77.93c-1.34,2.32-1.34,5.179,0,7.5
		c1.34,2.32,3.815,3.75,6.495,3.75h17.5v67.736c0,52.119-35.244,96.665-85,109.103V92.93H283c2.68,0,5.155-1.43,6.495-3.75
		c1.34-2.321,1.34-5.18,0-7.5l-45-77.93C243.155,1.43,240.68,0,238,0s-5.155,1.43-6.495,3.75l-45,77.93c-1.34,2.32-1.34,5.179,0,7.5
		c1.34,2.32,3.815,3.75,6.495,3.75h17.5v96.782c0,4.143,3.357,7.5,7.5,7.5s7.5-3.357,7.5-7.5V85.43c0-4.143-3.357-7.5-7.5-7.5
		h-12.009L238,22.498l32.009,55.432H258c-4.143,0-7.5,3.357-7.5,7.5V323.99c0,2.207,0.972,4.302,2.657,5.727
		c1.685,1.425,3.91,2.038,6.089,1.669c29.353-4.945,56.24-20.22,75.712-43.01c19.695-23.052,30.542-52.426,30.542-82.71V130.43
		c0-4.143-3.357-7.5-7.5-7.5h-12.009L378,67.498l32.009,55.432H398c-4.143,0-7.5,3.357-7.5,7.5v75.236
		c0,73.123-52.109,136.124-123.903,149.802c-3.537,0.674-6.097,3.767-6.097,7.367v22.5H248c-4.143,0-7.5,3.357-7.5,7.5
		s3.357,7.5,7.5,7.5h2.5V468.5c0,4.143,3.357,7.5,7.5,7.5s7.5-3.357,7.5-7.5v-68.165h2.5c4.143,0,7.5-3.357,7.5-7.5v-23.913
		c75.698-17.341,130-85.023,130-163.256V137.93H423c2.68,0,5.155-1.43,6.495-3.75C430.835,131.858,430.835,129,429.495,126.68z"/>
</g>
<g>
</g>
<g>
</g>
<g>
</g>
<g>
</g>
<g>
</g>
<g>
</g>
<g>
</g>
<g>
</g>
<g>
</g>
<g>
</g>
<g>
</g>
<g>
</g>
<g>
</g>
<g>
</g>
<g>
</g>
</svg>
