<svg height="512" viewBox="0 0 64 64" width="512" xmlns="http://www.w3.org/2000/svg"><g id="Trident"><path d="m61.577 20.808a1 1 0 0 0 -1.113-.207l-12.728 5.656a1 1 0 0 0 .012 1.833l1.613.692-3.694 3.693a3.585 3.585 0 0 1 -4.95 0 3.505 3.505 0 0 1 0-4.95l6.522-6.525.691 1.613a1 1 0 0 0 .912.606h.007a1 1 0 0 0 .914-.594l5.656-12.725a1 1 0 0 0 -1.319-1.319l-12.728 5.656a1 1 0 0 0 .012 1.833l1.616.691-6.522 6.522a3.5 3.5 0 0 1 -4.95-4.95l3.693-3.694.692 1.613a1 1 0 0 0 .912.606h.007a1 1 0 0 0 .914-.594l5.654-12.728a1 1 0 0 0 -1.32-1.32l-12.729 5.657a1 1 0 0 0 .012 1.833l1.613.691-4.047 4.047a9 9 0 0 0 0 12.727 2 2 0 0 1 0 2.829l-1.414 1.414a1 1 0 0 0 0 1.414l.707.708-22.749 22.748a3 3 0 0 0 4.243 4.243l22.748-22.749.708.707a1.029 1.029 0 0 0 1.414 0l1.414-1.414a2 2 0 0 1 2.829 0 9 9 0 0 0 12.727 0l4.044-4.047.691 1.613a1 1 0 0 0 .913.606h.006a1 1 0 0 0 .914-.594l5.657-12.728a1 1 0 0 0 -.204-1.113zm-9.041-9.344-3.67 8.258-.362-.845-.856-2a1 1 0 0 0 -.525-.525l-2-.856-.845-.362zm-12.02-6.364-3.671 8.258-.363-.846-.856-2a1 1 0 0 0 -.525-.525l-2-.856-.846-.363zm-34.216 54.013a1 1 0 1 1 -1.413-1.413l22.749-22.75 1.414 1.414zm41.84-23.456a7 7 0 0 1 -9.9 0 4 4 0 0 0 -5.657 0l-.707.707-4.243-4.243.707-.707a4 4 0 0 0 0-5.657 7 7 0 0 1 0-9.9l4.612-4.613.99.425.425.99-4.259 4.258a5.5 5.5 0 0 0 7.781 7.783l7.087-7.088.99.425.425.99-7.091 7.084a5.5 5.5 0 0 0 7.779 7.778l4.261-4.259.99.425.425.99zm7.088-3.914-.363-.846-.856-2a1 1 0 0 0 -.525-.525l-2-.856-.846-.363 8.262-3.669z"/></g></svg>