<svg height="512pt" viewBox="0 0 512 512.00076" width="512pt" xmlns="http://www.w3.org/2000/svg"><path d="m507.605469 216.535156c-3.542969-3.546875-8.628907-5.085937-13.546875-4.101562l-106.070313 21.214844c-5.425781 1.082031-9.8125 5.066406-11.414062 10.359374-1.605469 5.296876-.164063 11.042969 3.75 14.957032l10.605469 10.605468-42.429688 42.429688c-11.722656 11.722656-30.703125 11.722656-42.425781 0-11.699219-11.699219-11.699219-30.730469 0-42.429688l106.070312-106.070312 10.605469 10.605469c3.910156 3.914062 9.664062 5.351562 14.953125 3.75 5.296875-1.601563 9.277344-5.988281 10.363281-11.414063l21.210938-106.070312c.984375-4.917969-.554688-10.003906-4.101563-13.546875-3.546875-3.546875-8.632812-5.085938-13.546875-4.105469l-106.070312 21.214844c-5.421875 1.085937-9.8125 5.070312-11.414063 10.363281-1.601562 5.292969-.160156 11.042969 3.75 14.953125l10.605469 10.609375-106.070312 106.070313c-5.664063 5.664062-13.199219 8.785156-21.210938 8.785156-8.015625 0-15.550781-3.121094-21.214844-8.785156-11.699218-11.699219-11.699218-30.730469 0-42.429688l42.425782-42.429688 10.609374 10.609376c3.910157 3.910156 9.65625 5.351562 14.953126 3.75 5.292968-1.605469 9.277343-5.992188 10.359374-11.417969l21.214844-106.070313c.984375-4.917968-.554687-10-4.101562-13.546875s-8.632813-5.085937-13.546875-4.101562l-106.070313 21.214843c-5.425781 1.082032-9.8125 5.066407-11.417968 10.359376-1.601563 5.296874-.160157 11.042968 3.753906 14.957031l10.605468 10.605469-53.035156 53.035156c-41.039062 41.039062-41.042968 107.457031 0 148.5l10.605469 10.605468-10.605469 10.605469c-13.828125 13.828125-16.75 34.488281-8.78125 51.210938l-103.8125 103.8125c-17.546875 17.546875-17.546875 46.097656 0 63.644531 17.546875 17.542969 46.09375 17.542969 63.640625 0l103.8125-103.8125c16.726563 7.964844 37.382813 5.042969 51.210938-8.78125l10.605469-10.609375 10.609374 10.609375c41.035157 41.035156 107.457032 41.039062 148.496094 0l53.035156-53.035156 10.609376 10.605468c3.910156 3.914063 9.660156 5.351563 14.953124 3.75 5.292969-1.601562 9.277344-5.988281 10.359376-11.414062l21.214843-106.070312c.984375-4.921876-.554687-10.003907-4.101562-13.550782zm-452.015625 261.09375c-5.851563 5.847656-15.367188 5.847656-21.214844 0-5.851562-5.851562-5.851562-15.367187 0-21.21875l101.984375-101.984375 21.214844 21.214844zm410.984375-174.84375-1.394531-1.394531c-5.859376-5.855469-15.355469-5.859375-21.214844 0l-63.644532 63.644531c-29.308593 29.308594-76.753906 29.3125-106.070312 0l-21.210938-21.214844c-5.855468-5.855468-15.359374-5.859374-21.214843 0l-21.214844 21.214844c-5.863281 5.863282-15.351563 5.863282-21.214844 0l-42.425781-42.429687c-2.835938-2.832031-4.394531-6.601563-4.394531-10.605469 0-4.007812 1.558593-7.773438 4.394531-10.609375l21.210938-21.214844c5.859374-5.855469 5.859374-15.355469 0-21.210937l-21.210938-21.214844c-29.3125-29.3125-29.316406-76.757812 0-106.070312l63.640625-63.644532c5.851563-5.851562 5.859375-15.355468 0-21.210937l-1.394531-1.394531 56.523437-11.304688-11.308593 56.519531-1.394532-1.394531c-5.855468-5.855469-15.355468-5.855469-21.210937 0l-53.035157 53.035156c-23.398437 23.394532-23.398437 61.460938 0 84.859375 11.332032 11.332031 26.398438 17.570313 42.425782 17.570313s31.097656-6.238282 42.429687-17.574219l116.679688-116.675781c5.855469-5.855469 5.855469-15.355469 0-21.214844l-1.398438-1.394531 56.523438-11.304688-11.304688 56.523438-1.394531-1.394531c-5.855469-5.859376-15.355469-5.859376-21.214844 0l-116.675781 116.675781c-23.394531 23.394531-23.394531 61.460937 0 84.859375 23.449219 23.449218 61.40625 23.449218 84.855469 0l53.035156-53.035156c5.855469-5.855469 5.859375-15.359376 0-21.214844l-1.394531-1.394532 56.523437-11.304687zm0 0"/></svg>